PathFileType	4	(X/Y/Z)	Run_200 02
DataRate	CameraRate	NumFrames	NumMarkers	Units	OrigDataRate	OrigDataStartFrame	OrigNumFrames
120	120	4	41	mm	120	107	125
Frame#	Time	LASI			RASI			LPSI			RPSI			RTH1			RTH3			LTH1			LTH2			LTH3			RTB1			RTB2			RTB3			LTB1			LTB2			LTB3			RCAL			RTOE			RMT5			LCAL			LTOE			LMT5			LACR			RACR			CLAV			C7			RUA1			RUA2			RUA3			RLEL			RMEL			LUA1			LUA2			LUA3			LLEL			LMEL			RFAsuperior			RFAradius			RFAulna			LFAsuperior			LFAradius			LFAulna			
		X1	Y1	Z1	X2	Y2	Z2	X3	Y3	Z3	X4	Y4	Z4	X5	Y5	Z5	X6	Y6	Z6	X7	Y7	Z7	X8	Y8	Z8	X9	Y9	Z9	X10	Y10	Z10	X11	Y11	Z11	X12	Y12	Z12	X13	Y13	Z13	X14	Y14	Z14	X15	Y15	Z15	X16	Y16	Z16	X17	Y17	Z17	X18	Y18	Z18	X19	Y19	Z19	X20	Y20	Z20	X21	Y21	Z21	X22	Y22	Z22	X23	Y23	Z23	X24	Y24	Z24	X25	Y25	Z25	X26	Y26	Z26	X27	Y27	Z27	X28	Y28	Z28	X29	Y29	Z29	X30	Y30	Z30	X31	Y31	Z31	X32	Y32	Z32	X33	Y33	Z33	X34	Y34	Z34	X35	Y35	Z35	X36	Y36	Z36	X37	Y37	Z37	X38	Y38	Z38	X39	Y39	Z39	X40	Y40	Z40	X41	Y41	Z41	

107	1.658333	911.687815	977.6097559999999	-361.315738	898.794245	985.957474	-130.213573	747.735354	1007.118641	-302.32295	735.37282	1011.860869	-204.89716	865.306798	824.652878	-65.318943	943.2325520000001	579.522231	-130.438352	868.282641	782.500554	-417.199582	911.941852	673.766884	-402.462893	837.549821	564.601328	-390.243634	996.200509	359.558345	-214.800716	961.20126	304.591523	-144.599731	955.908777	242.996766	-216.432085	767.47018	376.879727	-332.160834	673.803901	388.779458	-386.895793	606.001946	316.540475	-319.365334	818.3388650000001	103.289556	-205.894682	1019.17169	74.08277099999999	-255.543982	1010.636445	61.675858	-158.636127	447.519441	356.773943	-297.873175	498.112446	155.459888	-307.883175	466.406312	174.110184	-392.006121	894.252649	1442.289223	-429.46962	845.0727879999999	1426.655484	-39.895622	933.292986	1426.01668	-204.871379	819.859476	1491.910387	-252.7388	750.2406570000001	1314.373764	-1.399475	684.213513	1333.411199	-31.495281	684.975057	1254.402546	16.96881	631.8558829999999	1204.920017	27.812793	607.220383	1197.058605	-51.323673	835.257195	1313.053677	-489.688761	764.238647	1275.502364	-493.096694	825.4623340000001	1222.034675	-499.027122	774.752662	1156.878148	-527.823436	720.419568	1162.12878	-458.66628	712.481687	1107.37229	12.599368	785.686821	1029.726557	-50.22856	739.464389	986.635544	-19.181902	881.775703	1105.787396	-473.677035	954.506232	1110.942561	-371.925539	959.39435	1052.457507	-408.800637	
108	1.666667	909.965433	970.541068	-360.722889	895.9817839999999	981.529165	-128.902635	745.365965	1000.353303	-302.882829	733.674639	1005.498995	-205.644126	862.398244	821.022785	-64.736592	942.199668	575.545579	-129.953235	870.241643	777.711193	-416.594187	916.772149	670.430646	-403.7587	845.504597	559.670093	-391.410534	990.2299	356.009476	-214.855814	953.128519	302.948409	-144.026608	946.13893	241.160015	-216.405178	778.690412	373.975767	-333.002723	684.768812	385.773413	-388.079868	616.148534	314.623332	-320.629785	802.314735	103.768699	-205.921816	1002.779113	73.520217	-255.330642	994.226591	61.139552	-158.507509	457.57678	356.586327	-298.770123	507.970695	155.309067	-310.111211	477.745603	175.029299	-394.686892	891.334926	1435.649099	-429.74095	847.7143119999999	1417.739162	-38.138201	933.786466	1420.073086	-205.283297	820.623927	1487.294965	-251.382352	756.074433	1302.012672	-0.165927	688.374973	1320.146737	-26.905466	691.818369	1240.625325	19.539881	640.56137	1190.469697	32.00201	613.509187	1182.534299	-46.118648	830.160943	1306.957277	-489.054256	758.823921	1268.859574	-491.111382	819.629335	1215.333653	-498.053952	767.908765	1150.575991	-526.146203	715.026112	1156.193348	-456.61983	722.456329	1094.410301	14.504855	795.316645	1018.852811	-50.642664	750.654465	974.905379	-18.525575	874.125814	1095.041814	-474.913921	948.356999	1096.355949	-375.038766	951.216354	1038.485052	-412.351701	
109	1.675	908.262374	964.925496	-360.736674	893.366104	978.246319	-127.659598	743.434205	995.653731	-303.440136	732.408057	1000.786161	-206.323818	859.603402	817.365308	-64.488519	938.644246	571.122286	-129.850062	871.580845	774.194525	-416.096901	921.827288	668.687095	-404.856947	853.664162	556.231716	-392.668623	983.2926650000001	351.390303	-213.560703	943.064516	300.000029	-143.132158	935.0673	238.291605	-215.798316	790.399998	371.928138	-332.77058	696.199508	383.682486	-389.139565	627.209843	312.802671	-321.908135	786.046006	104.048493	-205.875203	986.322077	72.761475	-255.098837	977.6274519999999	60.475105	-158.325629	467.790436	355.402429	-299.770742	519.998475	154.648116	-312.117378	490.930676	174.949059	-397.030103	888.645131	1430.1537	-429.895716	850.0962510000001	1410.141722	-37.169326	934.047461	1415.081801	-205.7833	821.020264	1483.168028	-250.484044	762.149415	1291.041588	0.585645	692.887215	1307.868848	-22.924935	699.541683	1228.00772	21.919949	650.415607	1176.55848	35.888944	620.703968	1168.242299	-41.005751	824.975826	1302.293689	-488.344896	753.299133	1263.87831	-488.480276	813.7127369999999	1210.481543	-497.805915	760.9184760000001	1145.600961	-524.629259	709.648902	1151.40321	-454.690335	733.559667	1082.053145	16.023995	805.807169	1008.746618	-51.247933	762.878929	963.94903	-17.865724	865.974617	1085.291814	-476.2833	941.100917	1082.143508	-378.25279	941.970187	1025.010335	-415.985247	
110	1.683333	906.540755	961.064084	-361.057953	891.034995	975.797827	-126.676105	741.792503	992.821659	-303.587329	731.243017	997.76193	-206.506716	857.144097	813.9531480000001	-64.32896599999999	933.2725349999999	566.767308	-129.936073	871.996814	771.639021	-415.777502	927.036583	667.993367	-405.845299	861.987878	553.900164	-393.863009	975.31079	346.198828	-211.918777	932.027882	295.940392	-142.568324	922.671544	234.897275	-215.092035	802.4891	370.695709	-331.62849	707.997207	382.31369	-390.1814	639.060654	311.063775	-323.126985	769.570958	104.259125	-205.82426	969.7314679999999	72.09498499999999	-254.886734	960.897907	60.027489	-158.089635	478.063473	353.150154	-300.743295	534.132671	153.46219	-313.964354	505.755702	173.920941	-399.026728	886.289881	1425.96096	-430.085089	852.190818	1404.198899	-36.889694	934.069809	1411.102276	-206.389839	820.864695	1479.46993	-250.001133	768.202432	1282.078039	1.120379	697.599926	1297.005882	-19.842426	708.022451	1217.08539	24.078464	661.251543	1163.795136	39.316564	628.988889	1154.677096	-36.271503	819.849053	1299.051035	-487.653216	747.820877	1260.913219	-485.198299	807.62665	1207.500754	-498.001152	753.828387	1142.407906	-523.4311760000001	704.246031	1148.256343	-452.955634	745.69692	1070.912719	16.99117	817.233341	999.902276	-52.006058	776.2594	954.28218	-17.112373	857.413065	1077.130307	-477.717185	932.697218	1068.985658	-381.519256	931.589241	1012.607506	-419.657931	
